<svg width="32" height="34" viewBox="0 0 32 34" fill="none" xmlns="http://www.w3.org/2000/svg">
<g clip-path="url(#clip0_170_1048)">
<path d="M26 11.3334H22.6667V8.50002C22.6667 6.94169 21.4667 5.66669 20 5.66669H4.00004C2.53337 5.66669 1.33337 6.94169 1.33337 8.50002V21.25C1.33337 22.8084 2.53337 24.0834 4.00004 24.0834C4.00004 26.435 5.78671 28.3334 8.00004 28.3334C10.2134 28.3334 12 26.435 12 24.0834H20C20 26.435 21.7867 28.3334 24 28.3334C26.2134 28.3334 28 26.435 28 24.0834H29.3334C30.0667 24.0834 30.6667 23.4459 30.6667 22.6667V17.9492C30.6667 17.34 30.48 16.745 30.1334 16.2492L27.0667 11.9C26.8134 11.5459 26.4134 11.3334 26 11.3334ZM8.00004 25.5C7.26671 25.5 6.66671 24.8625 6.66671 24.0834C6.66671 23.3042 7.26671 22.6667 8.00004 22.6667C8.73337 22.6667 9.33337 23.3042 9.33337 24.0834C9.33337 24.8625 8.73337 25.5 8.00004 25.5ZM26 13.4584L28.6134 17H22.6667V13.4584H26ZM24 25.5C23.2667 25.5 22.6667 24.8625 22.6667 24.0834C22.6667 23.3042 23.2667 22.6667 24 22.6667C24.7334 22.6667 25.3334 23.3042 25.3334 24.0834C25.3334 24.8625 24.7334 25.5 24 25.5Z" fill="#F2F2F2"/>
</g>
<defs>
<clipPath id="clip0_170_1048">
<rect width="32" height="34" fill="white"/>
</clipPath>
</defs>
</svg>
