<svg width="32" height="34" viewBox="0 0 32 34" fill="none" xmlns="http://www.w3.org/2000/svg">
<g clip-path="url(#clip0_170_1053)">
<path d="M21.3334 15.5834C23.5467 15.5834 25.32 13.685 25.32 11.3334C25.32 8.98171 23.5467 7.08337 21.3334 7.08337C19.12 7.08337 17.3334 8.98171 17.3334 11.3334C17.3334 13.685 19.12 15.5834 21.3334 15.5834ZM10.6667 15.5834C12.88 15.5834 14.6534 13.685 14.6534 11.3334C14.6534 8.98171 12.88 7.08337 10.6667 7.08337C8.45337 7.08337 6.66671 8.98171 6.66671 11.3334C6.66671 13.685 8.45337 15.5834 10.6667 15.5834ZM10.6667 18.4167C7.56004 18.4167 1.33337 20.0742 1.33337 23.375V25.5C1.33337 26.2792 1.93337 26.9167 2.66671 26.9167H18.6667C19.4 26.9167 20 26.2792 20 25.5V23.375C20 20.0742 13.7734 18.4167 10.6667 18.4167ZM21.3334 18.4167C20.9467 18.4167 20.5067 18.445 20.04 18.4875C20.0667 18.5017 20.08 18.53 20.0934 18.5442C21.6134 19.72 22.6667 21.2925 22.6667 23.375V25.5C22.6667 25.9959 22.5734 26.4775 22.4267 26.9167H29.3334C30.0667 26.9167 30.6667 26.2792 30.6667 25.5V23.375C30.6667 20.0742 24.44 18.4167 21.3334 18.4167Z" fill="#F2F2F2"/>
</g>
<defs>
<clipPath id="clip0_170_1053">
<rect width="32" height="34" fill="white"/>
</clipPath>
</defs>
</svg>
