<svg width="21" height="20" viewBox="0 0 21 20" fill="none" xmlns="http://www.w3.org/2000/svg">
<path d="M10.657 0C5.13699 0 0.666992 4.48 0.666992 10C0.666992 15.52 5.13699 20 10.657 20C16.187 20 20.667 15.52 20.667 10C20.667 4.48 16.187 0 10.657 0ZM10.667 18C6.24699 18 2.66699 14.42 2.66699 10C2.66699 5.58 6.24699 2 10.667 2C15.087 2 18.667 5.58 18.667 10C18.667 14.42 15.087 18 10.667 18ZM10.447 5H10.387C9.98699 5 9.66699 5.32 9.66699 5.72V10.44C9.66699 10.79 9.84699 11.12 10.157 11.3L14.307 13.79C14.647 13.99 15.087 13.89 15.287 13.55C15.497 13.21 15.387 12.76 15.037 12.56L11.167 10.26V5.72C11.167 5.32 10.847 5 10.447 5Z" fill="url(#paint0_linear_776_901)"/>
<defs>
<linearGradient id="paint0_linear_776_901" x1="8" y1="-2.5" x2="42.5" y2="29" gradientUnits="userSpaceOnUse">
<stop stop-color="#39646C"/>
<stop offset="1" stop-color="#C4F4FF"/>
</linearGradient>
</defs>
</svg>
