<svg width="149" height="77" viewBox="0 0 149 77" fill="none" xmlns="http://www.w3.org/2000/svg">
<g clip-path="url(#clip0_652_1943)">
<path fill-rule="evenodd" clip-rule="evenodd" d="M88.3358 17.7168C90.618 18.2112 92.9325 18.8362 93.4994 19.067C94.0618 19.3173 94.5672 19.637 94.6146 19.7917C94.662 19.9464 94.6694 20.2772 94.6072 20.5512C94.5449 20.8251 94.16 21.52 93.758 22.1081C93.356 22.6963 92.6736 24.0645 92.239 25.1596C91.8044 26.2546 91.0104 28.7497 90.4391 30.7191C89.8874 32.6928 89.1801 35.3515 88.8867 36.6429C88.5266 38.2279 88.4051 39.1262 88.5044 39.416C88.6385 39.7343 88.767 39.8044 89.1168 39.7188C89.355 39.6697 90.4013 39.0623 91.4457 38.3723C92.5187 37.6476 94.3504 36.1272 95.7798 34.7423C97.1477 33.4464 98.9479 31.6103 99.7815 30.667C100.635 29.7281 101.868 28.2989 102.509 27.4767C103.169 26.6589 103.745 25.7603 103.816 25.4472C103.883 25.1537 103.807 24.3961 103.642 23.7621C103.412 22.8668 103.424 22.5405 103.65 22.1801C103.835 21.9132 104.235 21.695 104.679 21.651C105.083 21.5982 106.342 21.7795 107.481 22.0365C108.62 22.2935 109.879 22.6597 110.288 22.855C110.698 23.0503 111.146 23.4395 111.285 23.7381C111.424 24.0368 111.51 24.3854 111.463 24.4983C111.432 24.6353 111.049 24.9602 110.62 25.2131C110.21 25.4705 109.412 25.8046 108.868 25.9286C108.319 26.0723 107.487 26.4607 107.001 26.783C106.515 27.1053 105.652 27.8156 105.073 28.3639C104.495 28.9122 103.411 30.046 102.639 30.9003C101.871 31.7351 100.595 33.175 99.7941 34.0641C98.9935 34.9531 97.8575 36.1368 97.2788 36.685C96.7001 37.2333 95.8343 38.0459 95.3367 38.5096C94.8632 38.9582 94.4397 39.4592 94.413 39.5766C94.3819 39.7136 94.7061 40.013 95.1551 40.2172C95.5801 40.4365 96.3426 40.8965 96.8283 41.2118C97.4185 41.6124 97.9946 42.2567 98.5174 43.1358C98.9794 43.9189 99.4507 45.1154 99.6782 46.113C99.9872 47.4787 100.042 48.6018 99.9149 51.8852C99.8382 54.1307 99.7867 56.6287 99.7749 57.4077C99.7826 58.1912 99.8345 59.4166 99.9234 60.1155C100.017 60.7948 100.336 61.7514 100.62 62.227C100.98 62.8225 101.374 63.1788 101.906 63.3811C102.321 63.5568 102.879 63.6417 103.157 63.6015C103.415 63.5568 103.811 63.3582 104.026 63.1393C104.236 62.9399 104.498 62.423 104.596 61.9925C104.674 61.5576 104.685 60.9635 104.59 60.6541C104.495 60.3448 104.48 59.8681 104.531 59.5506C104.611 59.1984 104.859 58.9252 105.29 58.755C105.638 58.5866 106.071 58.4991 106.263 58.563C106.439 58.6028 106.786 58.8044 107.034 58.9839C107.278 59.1829 107.516 59.5864 107.572 59.8869C107.628 60.1875 107.605 60.9229 107.53 61.5233C107.438 62.2019 107.164 63.0451 106.794 63.764C106.462 64.409 105.908 65.2098 105.564 65.5435C105.216 65.8968 104.615 66.358 104.254 66.585C103.873 66.8077 103.069 67.0787 102.485 67.1939C101.731 67.3323 100.993 67.3098 100.026 67.1123C98.8679 66.8509 98.4778 66.66 97.6071 65.9493C96.7864 65.291 96.4541 64.8457 96.0758 63.8758C95.8165 63.2002 95.546 62.0283 95.4901 61.2751C95.4341 60.522 95.3904 59.4424 95.3926 58.8875C95.3993 58.313 95.5534 55.8176 95.7316 53.307C95.9098 50.7964 95.988 48.1809 95.9187 47.4865C95.8298 46.7876 95.6479 45.862 95.4967 45.437C95.3456 45.0121 94.9202 44.3401 94.5594 43.9296C94.1941 43.5386 93.4386 42.9567 92.8851 42.6673C92.0985 42.2224 91.671 42.1053 90.9437 42.1264C90.3431 42.1349 89.7463 42.3088 89.2602 42.6311C88.866 42.9124 88.3069 43.4651 88.052 43.8602C87.6982 44.418 87.328 45.7745 86.3544 50.0598C85.4919 53.856 85.0832 56.1089 85.0039 57.3664C84.912 58.4976 84.9869 59.4402 85.1577 59.8696C85.3133 60.275 85.7438 60.7424 86.234 61.0381C86.6893 61.3054 87.1509 61.6359 87.2706 61.7451C87.3706 61.85 87.3995 62.2679 87.3106 62.6593C87.195 63.1681 86.9731 63.5088 86.6074 63.7555C86.1543 64.0235 85.6912 64.063 84.2418 63.9006C83.1548 63.7787 81.2456 63.3685 79.5157 62.896C77.1861 62.2469 76.5407 61.9984 76.2887 61.6536C76.0824 61.3807 76.0294 60.9779 76.1272 60.5474C76.2072 60.1952 76.4514 59.7566 76.6485 59.6159C76.8456 59.4753 77.3417 59.3815 77.7281 59.407C78.1145 59.4324 78.608 59.4409 78.8133 59.4461C78.9989 59.4468 79.3779 59.1415 79.648 58.7705C80.0563 58.2455 80.4461 56.8934 81.8595 51.3085C82.7961 47.5496 84.6723 39.292 88.5047 21.3343L88.1179 20.8561C87.7767 20.45 87.5107 20.3489 86.1335 20.141C84.9135 19.9686 84.2103 19.9745 83.2244 20.2252C82.5053 20.3921 81.4071 20.8643 80.7962 21.2818C80.1897 21.6798 79.256 22.5183 78.7425 23.143C78.0338 23.9911 77.7103 24.5969 77.3961 25.6163C77.1638 26.3661 76.9923 27.212 76.9997 27.5428C76.9919 27.8496 77.1557 28.4008 77.355 28.7955C77.5543 29.1902 77.9741 29.614 78.3339 29.7569C78.6543 29.8909 79.1212 30.0168 79.3549 29.9873C79.5843 29.9773 80.0178 29.7049 80.3182 29.3818C80.8425 28.8007 80.8514 28.7615 80.6928 28.0058C80.5809 27.5897 80.5394 27.0455 80.5972 26.7911C80.6309 26.5519 80.8636 26.2546 81.1 26.1228C81.3364 25.991 81.7146 25.8707 81.9484 25.8411C82.1822 25.8116 82.6446 25.9571 82.9714 26.1542C83.3178 26.3558 83.5894 26.7051 83.6405 27.0252C83.6961 27.3257 83.5923 28.1457 83.4278 28.8697C83.2589 29.6133 82.9276 30.526 82.712 30.9299C82.4723 31.3489 81.841 31.947 81.1952 32.3362C80.5646 32.7493 79.751 33.0595 79.2683 33.0945C78.8096 33.1145 78.076 33.0724 77.644 32.9749C77.212 32.8774 76.3791 32.5455 75.806 32.2516C75.2132 31.9533 74.4185 31.3626 74.0335 30.9672C73.6334 30.5478 73.1928 29.8518 73.0461 29.4073C72.8842 28.9388 72.7371 28.0416 72.7027 27.3756C72.6449 26.5397 72.7549 25.7828 73.0513 24.8417C73.2836 24.0918 73.7201 23.0795 74.0168 22.591C74.3377 22.0874 74.9197 21.2519 75.328 20.7269C75.813 20.1369 76.7815 19.3269 77.9089 18.635C79.1656 17.8283 80.1763 17.3775 81.2452 17.125C82.0955 16.926 83.1029 16.7624 83.4893 16.7879C83.8802 16.7938 86.0535 17.2224 88.3358 17.7168ZM24.7771 3.99348C25.8571 4.23715 27.3513 4.65657 28.0708 4.94233C28.7948 5.20853 29.5706 5.60985 29.7903 5.82399C30.0339 6.08465 30.1112 6.41066 30.0222 6.80202C29.9511 7.1151 29.4698 7.87049 28.9456 8.45162C28.4169 9.05232 27.7885 10.0008 27.5373 10.5613C27.3058 11.1261 26.8204 12.3537 26.4999 13.31C26.1598 14.2618 25.3155 17.3421 24.6074 20.1857C23.8798 23.0249 23.3437 25.4753 23.4107 25.6344C23.4537 25.8087 23.6956 25.925 23.925 25.915C24.1499 25.9246 25.264 25.2914 26.4003 24.5604C27.541 23.8098 29.1642 22.5715 30.0167 21.8176C30.8736 21.0441 31.9785 19.9974 32.4653 19.4901C32.9718 18.9872 34.1977 17.6799 35.1847 16.6066C36.1717 15.5333 37.3521 14.154 37.8219 13.54C38.2676 12.9411 38.6963 12.2356 38.7585 11.9616C38.8208 11.6877 38.7071 11.1889 38.5229 10.8182C38.354 10.4715 38.1376 9.97016 38.0579 9.68476C37.9979 9.4038 38.052 8.98401 38.215 8.62995C38.3888 8.31944 38.733 7.98568 39.0042 7.88231C39.3825 7.76195 40.2642 7.87861 42.5617 8.39698C44.2308 8.77357 45.7598 9.22141 45.9536 9.36798C46.1474 9.51456 46.3226 9.92437 46.3648 10.2836C46.4045 10.7451 46.3182 11.0342 46.0614 11.3465C45.8813 11.5939 45.1615 11.9458 44.5012 12.1259C43.841 12.3061 42.9792 12.6465 42.5984 12.8691C42.1979 13.0873 41.1438 14.0015 40.245 14.8684C39.3462 15.7353 37.9864 17.177 37.1947 18.0269C36.4181 18.9008 35.1636 20.2429 34.4137 20.9994C33.6398 21.771 32.2871 23.0909 31.3775 23.9143C30.4635 24.7572 29.7199 25.5768 29.7129 25.6986C29.721 25.8445 30.2542 26.3145 30.8837 26.7239C31.5087 27.1529 32.3293 27.8112 32.6991 28.1826C33.0644 28.5736 33.6594 29.4073 34.0106 30.0419C34.3815 30.681 34.7661 31.7141 34.8969 32.3196C35.0232 32.9446 35.134 34.1833 35.1436 35.0495C35.1488 35.9352 35.1084 37.8392 35.024 39.3012C34.9591 40.7677 34.8858 42.726 34.8535 43.6855C34.8409 44.6495 34.925 46.0056 35.0139 46.7045C35.1225 47.4078 35.3418 48.2596 35.5304 48.6107C35.7449 49.0294 36.1236 49.3617 36.5574 49.5418C36.9957 49.7024 37.5152 49.7785 37.9086 49.6821C38.2539 49.6161 38.7071 49.348 38.9156 49.0659C39.1394 48.8079 39.3639 48.3648 39.4351 48.0517C39.5018 47.7582 39.4103 47.1616 39.2198 46.7278C39.0294 46.2939 38.929 45.7365 38.9868 45.4821C39.0401 45.2473 39.3013 44.9153 39.5662 44.7488C39.8311 44.5823 40.2835 44.4992 40.5977 44.5701C40.8967 44.617 41.3083 44.895 41.5388 45.1527C41.7692 45.4104 41.9963 45.9554 42.0689 46.3626C42.1586 46.8766 42.0708 47.5356 41.7388 48.6332C41.3846 49.8287 41.0853 50.4194 40.4291 51.2177C39.9486 51.7881 39.1487 52.4922 38.6474 52.7905C38.1309 53.0648 37.2977 53.3705 36.7623 53.4554C36.0762 53.568 35.4497 53.5089 34.6383 53.2642C33.9992 53.0788 33.1644 52.6642 32.7769 52.3711C32.3938 52.0583 31.7765 51.3225 31.3968 50.7226C30.8303 49.8542 30.6665 49.303 30.5217 47.8509C30.4209 46.8407 30.4631 45.0195 30.6084 43.6534C30.7447 42.3265 30.9259 40.1663 30.9989 38.8456C31.0674 37.5445 31.057 35.7731 30.9752 34.9524C30.8977 34.1121 30.7192 32.8992 30.5535 32.2653C30.4031 31.6554 30.0159 30.7246 29.7121 30.2446C29.3887 29.7602 28.8626 29.1684 28.5599 28.9561C28.2376 28.7394 27.6359 28.4802 27.2432 28.3916C26.8308 28.2986 26.1606 28.2502 25.7608 28.2834C25.3566 28.3362 24.6634 28.5707 24.2344 28.8236C23.8053 29.0765 23.2222 29.6443 22.9146 30.0892C22.4467 30.7859 22.2207 31.5989 21.2889 35.7908C20.6994 38.4761 20.1041 41.5508 19.9907 42.5949C19.8773 43.639 19.8462 44.8662 19.934 45.2975C19.9977 45.7438 20.2293 46.2692 20.4294 46.4789C20.6491 46.6931 21.1696 47.0368 21.5946 47.2561C22.0544 47.5038 22.433 47.8361 22.4975 48.0975C22.5467 48.3349 22.5471 48.7876 22.4715 49.1202C22.3648 49.5898 22.1633 49.7501 21.4942 49.9694C20.7091 50.2448 20.4297 50.2023 11.5122 48.2932L11.1325 47.6932C10.8743 47.2853 10.8016 46.878 10.9083 46.4084C11.0195 45.9192 11.1995 45.6718 11.5823 45.5319C11.8535 45.4285 12.3362 45.3935 12.6701 45.4688C13.0039 45.5441 13.4385 45.5393 13.6463 45.4422C13.8979 45.3344 14.2384 44.8352 14.4984 44.2356C14.73 43.6708 15.3691 41.6756 15.9334 39.8281C16.478 37.9761 18.3964 30.0778 20.2096 22.2791C22.134 13.9912 23.473 7.91627 23.4174 7.61574C23.3726 7.35878 23.1555 7.04237 22.9332 6.9305C22.6912 6.8142 21.9558 6.68941 21.2856 6.64104C20.6109 6.61224 19.4883 6.64695 18.7825 6.75513C17.8233 6.88841 17.1212 7.16199 15.9171 7.91886C14.9056 8.55463 14.0335 9.30411 13.5307 9.97237C12.7756 10.9334 12.6786 11.1789 12.3925 12.8012C12.2006 13.8276 12.131 14.861 12.2125 15.2291C12.294 15.5972 12.6523 16.11 12.9853 16.3703C13.3184 16.6306 13.8219 16.8676 14.1102 16.871C14.394 16.8938 14.9275 16.7262 15.2932 16.4796C15.7748 16.1769 16.003 15.8992 16.099 15.386C16.1861 14.912 16.1027 14.4612 15.8122 13.9225C15.4825 13.375 15.4314 13.0549 15.5855 12.7399C15.7174 12.5228 15.9849 12.2541 16.1927 12.157C16.4006 12.0599 16.8744 12.0639 17.252 12.1285C17.6447 12.2171 18.1349 12.5129 18.3957 12.8186C18.6413 13.1003 18.8596 13.6844 18.8885 14.1023C18.9325 14.5442 18.7781 15.4968 18.5457 16.2466C18.3001 17.0552 17.9081 17.8719 17.5658 18.2883C17.252 18.6701 16.6733 19.2184 16.2746 19.5193C15.8804 19.8006 15.1846 20.1373 14.7474 20.2444C14.2862 20.3666 13.4322 20.4002 12.869 20.3348C12.1639 20.258 11.4507 20.0354 10.7883 19.6802C10.2348 19.3908 9.4534 18.7413 9.04252 18.2784C8.53605 17.691 8.2026 16.978 7.94659 16.0151C7.73615 15.1243 7.64426 14.075 7.73541 13.1287C7.82729 11.9975 7.9892 11.3757 8.47825 10.3135C8.80873 9.58582 9.49675 8.46565 10.0103 7.84096C10.5041 7.21183 11.4663 6.33866 12.1451 5.89525C12.8282 5.43227 14.0405 4.82124 14.8497 4.53067C15.6588 4.24011 16.8481 3.91189 17.4861 3.82955C18.1286 3.72765 19.1422 3.62723 19.7124 3.57074C20.2978 3.53825 21.2304 3.52237 21.7872 3.52459C22.3593 3.5508 23.6927 3.76937 24.7771 3.99348ZM117.948 31.2071C119.054 31.5184 119.237 31.6214 119.619 32.3041C119.853 32.7272 120.021 33.4438 120.021 33.8964C120.002 34.3446 119.866 35.034 119.733 35.436C119.572 35.8728 119.197 36.3435 118.735 36.6507C118.244 36.9926 117.599 37.1968 116.931 37.2311C116.35 37.244 115.684 37.1761 115.427 37.0358C115.165 36.915 114.778 36.6219 114.562 36.3882C114.347 36.1545 114.063 35.679 113.942 35.302C113.806 34.901 113.787 34.259 113.925 33.6524C114.058 33.0654 114.347 32.4311 114.656 32.0689C114.957 31.7458 115.528 31.3194 115.955 31.1688C116.613 30.9059 116.921 30.9136 117.948 31.2071ZM129.445 33.7598C130.431 33.9618 130.762 34.1394 131.134 34.5935C131.39 34.9188 131.698 35.5641 131.796 36.0389C131.875 36.5093 131.905 37.1949 131.829 37.5276C131.749 37.8798 131.512 38.3815 131.288 38.6396C131.06 38.9172 130.58 39.3027 130.199 39.5253C129.842 39.7328 129.153 39.9477 128.695 39.9676C128.232 40.0071 127.551 39.9152 127.195 39.7528C126.816 39.6054 126.333 39.1879 126.083 38.7408C125.719 38.1648 125.657 37.8011 125.78 36.9856C125.87 36.4092 126.068 35.631 126.239 35.2378C126.425 34.7858 126.83 34.3631 127.365 34.0105C128.155 33.5306 128.306 33.5029 129.445 33.7598ZM141.796 36.5466C142.424 36.6884 143.159 36.9981 143.457 37.23C143.736 37.4574 144.098 37.9507 144.239 38.3321C144.425 38.7854 144.423 39.3404 144.267 40.0252C144.08 40.8471 143.869 41.2314 143.233 41.8491C142.799 42.3065 142.125 42.7304 141.775 42.816C141.425 42.9017 140.805 42.9058 140.432 42.8216C140.059 42.7374 139.446 42.4346 139.083 42.1264C138.68 41.8092 138.361 41.3053 138.248 40.8065C138.145 40.3512 138.176 39.5766 138.318 38.9505C138.461 38.3243 138.767 37.6117 139.057 37.2451C139.342 36.8981 139.817 36.5322 140.123 36.4572C140.429 36.3823 141.183 36.4288 141.796 36.5466ZM52.2924 17.1752C52.803 17.2904 53.4395 17.578 53.7377 17.8098C54.0163 18.0373 54.4094 18.5785 54.6088 18.9732C54.8707 19.5466 54.9148 19.9885 54.7477 20.8148C54.5984 21.5628 54.3757 22.0885 53.9941 22.4961C53.6651 22.8539 53.0719 23.1932 52.4795 23.3475C51.9353 23.4716 51.2232 23.5166 50.909 23.4457C50.5752 23.3704 50.0698 23.0507 49.7501 22.7317C49.4348 22.3931 49.0702 21.8172 48.945 21.4598C48.8242 21.0828 48.7682 20.3297 48.8294 19.788C48.9109 19.0659 49.0613 18.5855 49.417 18.1104C49.6826 17.7589 50.2302 17.3476 50.613 17.2077C51.0831 17.0463 51.7033 17.0423 52.2728 17.1707L52.2924 17.1752ZM64.5651 19.9442C65.0364 20.0505 65.6184 20.3053 65.8774 20.5283C66.1605 20.7362 66.4884 21.201 66.6136 21.5584C66.7388 21.9158 66.7859 22.7081 66.7114 23.3084C66.5899 24.2067 66.4465 24.5652 65.8759 25.2593C65.382 25.8884 64.9923 26.1502 64.4766 26.2395C64.1116 26.3012 63.3191 26.2458 62.7497 26.1173C62.0035 25.9489 61.5785 25.7296 61.1436 25.2818C60.8238 24.9628 60.4896 24.4348 60.4296 24.1539C60.3544 23.8489 60.37 23.2353 60.4767 22.7657C60.5789 22.3156 60.8149 21.7312 61.0039 21.4447C61.1884 21.1777 61.5656 20.7897 61.859 20.5885C62.1524 20.3873 62.6885 20.1174 63.0668 19.997C63.4495 19.8571 64.1135 19.8423 64.5651 19.9442ZM115.918 41.3226C116.494 41.5142 117.146 41.8258 117.346 42.0355C117.566 42.2497 117.821 42.7599 117.923 43.1324C118.088 43.7664 117.916 44.7972 116.491 51.6138C115.15 58.0586 114.847 59.7592 114.776 61.6152C114.701 62.8531 114.658 64.8594 114.622 66.1062C114.584 68.0929 114.528 68.43 114.177 68.8856C113.949 69.1632 113.419 69.4962 113.006 69.5881C112.544 69.7104 111.787 69.6834 111.158 69.5416C110.432 69.3777 109.909 69.1362 109.519 68.7604C109.234 68.4698 108.926 68.0094 108.866 67.7285C108.785 67.3604 108.929 66.8169 109.504 65.4656C110.192 63.8928 110.46 62.8014 111.852 56.2241C112.722 52.1211 113.467 48.1134 113.518 47.3432C113.574 46.5535 113.523 45.5958 113.431 45.1841C113.339 44.7725 112.933 44.1049 112.533 43.6855C112.148 43.2901 111.833 42.7666 111.823 42.538C111.813 42.3095 111.985 41.9163 112.214 41.6386C112.418 41.3761 112.866 41.1277 113.212 41.0616C113.557 40.9955 114.059 40.9648 114.348 40.9682C114.631 40.9911 115.338 41.1506 115.918 41.3226ZM127.722 44.068C129.293 44.4224 129.48 44.5059 129.83 45.0578C130.042 45.3938 130.182 45.9602 130.146 46.3017C130.124 46.6672 129.438 50.0506 128.639 53.8405C127.844 57.6108 127.093 61.5554 126.988 62.5603C126.86 63.5805 126.801 65.7477 126.847 67.3626C126.938 70.1397 126.904 70.379 126.485 71.0454C126.093 71.6771 125.905 71.7786 124.975 71.8772C124.385 71.9293 123.466 71.8864 122.931 71.7864C122.224 71.6269 121.779 71.4032 121.364 70.9597C120.944 70.5359 120.795 70.1936 120.849 69.7739C120.885 69.4323 121.19 68.6371 121.507 67.9681C121.824 67.2991 122.479 65.3279 122.962 63.565C123.454 61.7629 124.199 58.2078 124.709 55.4222C125.185 52.6908 125.589 49.8198 125.601 49.0408C125.617 48.2422 125.516 47.4171 125.364 47.1771C125.232 46.9415 124.912 46.6225 124.659 46.4627C124.407 46.3028 124.139 45.934 124.036 45.6637C123.93 45.3108 123.982 44.9932 124.169 44.624C124.362 44.318 124.78 44.0215 125.242 43.8993C125.839 43.7254 126.426 43.7756 127.722 44.068ZM139.7 46.7706C140.662 46.9877 141.602 47.3026 141.815 47.4536C142.044 47.6286 142.311 47.9975 142.415 48.2677C142.571 48.6731 142.398 49.7039 141.562 53.5676C140.981 56.2137 140.28 59.5731 140.029 61.0389C139.759 62.5002 139.456 64.6534 139.355 65.8237C139.254 66.9941 139.126 69.1045 139.089 70.5363C139.036 72.9516 138.998 73.2104 138.581 73.7746C138.253 74.215 137.849 74.4528 137.197 74.5938C136.609 74.7286 135.852 74.7016 135.046 74.52C134.025 74.2896 133.749 74.1449 133.351 73.6232C132.954 73.1015 132.904 72.8641 133.064 72.1597C133.186 71.714 133.509 70.8405 133.832 70.2346C134.206 69.4962 134.775 67.6292 135.511 64.7508C136.212 62.0291 136.834 59.0219 137.194 56.7993C137.497 54.8311 137.781 52.4885 137.82 51.592C137.863 50.676 137.779 49.7726 137.627 49.5326C137.495 49.297 137.141 48.9496 136.877 48.7462C136.609 48.5623 136.362 48.1979 136.371 47.9738C136.361 47.7453 136.446 47.3735 136.563 47.1324C136.675 46.9109 137.045 46.6447 137.375 46.5546C137.769 46.4582 138.596 46.542 139.7 46.7706ZM50.5563 27.5421C51.8826 27.8825 52.1246 27.9988 52.4588 28.5267C52.717 28.9347 52.8174 29.4922 52.7681 30.3451C52.7411 31.1001 52.325 33.0222 51.713 35.3526C51.1383 37.6092 50.5018 40.5923 50.1635 42.7171C49.8412 44.6809 49.5396 46.9168 49.4644 47.7021C49.3937 48.4678 49.4048 50.0543 49.4744 51.2014C49.5637 52.353 49.5255 53.702 49.41 54.2108C49.2499 54.9152 49.0521 55.2409 48.6382 55.5178C48.2966 55.7493 47.7372 55.8493 47.0866 55.8054C46.519 55.7596 45.6898 55.5931 45.2122 55.4236C44.6998 55.2257 44.2186 54.8909 44.0059 54.5549C43.6869 54.0509 43.6832 53.8855 44.0215 52.851C44.2467 52.223 44.9362 49.6426 45.5686 47.1317C46.2055 44.6011 47.0199 40.8353 47.3822 38.6954C47.8164 36.0574 48.0202 34.252 48.0013 32.9723C47.9743 31.5468 47.8461 30.8391 47.4456 29.967C47.1577 29.3261 46.9706 28.605 47.0328 28.3311C47.0755 28.0527 47.317 27.7163 47.5534 27.5845C47.7898 27.4527 48.2162 27.3021 48.5178 27.2467C48.8194 27.1913 49.7404 27.3169 50.5563 27.5421ZM62.7308 30.2889C63.8804 30.5895 64.0831 30.6969 64.5129 31.3493C64.7711 31.7573 64.9697 32.3369 64.9334 32.6784C64.9167 33.0244 64.2572 36.2904 63.4651 39.9584C62.2258 45.6855 62.0154 46.9751 61.8886 49.1682C61.8175 50.5715 61.763 52.7192 61.7668 53.9749C61.7742 55.3959 61.6715 56.4836 61.5148 56.9008C61.3518 57.2549 61.0969 57.6499 60.9239 57.7755C60.7749 57.8859 60.3244 58.0516 59.9747 58.1373C59.6008 58.2381 58.7253 58.1845 57.9399 58.0073C56.9536 57.8054 56.426 57.5835 56.0867 57.2601C55.8321 57.0175 55.6176 56.5988 55.6165 56.3311C55.611 56.083 56.0044 54.8964 56.5201 53.7168C57.3423 51.8246 57.6039 50.8551 58.822 45.4935C59.5823 42.1474 60.3111 38.4856 60.4511 37.3241C60.6152 36.1475 60.6641 34.842 60.5656 34.3672C60.467 33.8924 60.1014 33.0487 59.7564 32.4772C59.4071 31.9253 59.1585 31.2932 59.2074 31.0779C59.2563 30.8627 59.5612 30.5201 59.8743 30.3233C60.2114 30.1114 60.6816 29.95 60.9502 29.9489C61.2143 29.9674 62.0087 30.1054 62.7308 30.2889ZM74.6196 36.201C75.0713 36.3029 75.7211 36.5318 76.0283 36.7245C76.3595 36.9021 76.6855 37.2843 76.7696 37.5501C76.8511 37.9182 76.5499 39.5165 75.6659 43.2255C74.9972 46.078 74.2577 49.6962 74.0198 51.2882C73.7216 53.2368 73.5963 55.06 73.6282 56.9185C73.6623 59.3125 73.6215 59.6735 73.3307 59.7725C73.1514 59.8349 73.0702 59.9194 73.188 59.946C73.2907 59.9486 73.1677 60.1266 72.8983 60.3126C72.6334 60.4791 72.1499 60.6992 71.8002 60.7848C71.47 60.8749 70.599 60.8018 69.7743 60.6157C68.4935 60.3473 68.3105 60.2443 67.9111 59.6399C67.4813 58.9876 67.4794 58.9049 67.8507 57.8161C68.0759 57.1881 68.4357 56.2407 68.6735 55.7389C68.8962 55.2132 69.5424 53.0962 70.077 51.0157C70.6446 48.881 71.4989 44.939 72.0239 41.9923C72.8768 37.33 73.0146 36.7234 73.3829 36.3745C73.6941 36.095 73.9716 36.0548 74.6196 36.201Z" fill="#D6EEBF"/>
</g>
<defs>
<clipPath id="clip0_652_1943">
<rect width="141.513" height="47.0226" fill="white" transform="matrix(0.975479 0.220093 -0.22156 0.975147 10.5117 0)"/>
</clipPath>
</defs>
</svg>
