<svg xmlns="http://www.w3.org/2000/svg" width="26" height="26" viewBox="0 0 26 26" fill="none">
  <rect x="-0.209677" y="0.209677" width="25.5806" height="25.5806" rx="12.7903" transform="matrix(-1 0 0 1 25.5806 0)" fill="white" fill-opacity="0.8"></rect>
  <rect x="-0.209677" y="0.209677" width="25.5806" height="25.5806" rx="12.7903" transform="matrix(-1 0 0 1 25.5806 0)" stroke="#285100" stroke-width="0.419355"></rect>
  <path d="M12.3453 12.1911C12.0552 12.4812 12.0552 12.9516 12.3453 13.2418L16.0682 16.9647C16.3584 17.2548 16.3584 17.7252 16.0682 18.0154L15.6661 18.4175C15.376 18.7077 14.9056 18.7077 14.6154 18.4175L9.43965 13.2418C9.14951 12.9516 9.14951 12.4812 9.43965 12.1911L14.6154 7.01532C14.9056 6.72518 15.376 6.72518 15.6661 7.01532L16.0682 7.41747C16.3584 7.70761 16.3584 8.17802 16.0682 8.46816L12.3453 12.1911Z" fill="#285100" fill-opacity="0.55"></path>
</svg>
