<svg xmlns="http://www.w3.org/2000/svg" width="26" height="26" viewBox="0 0 26 26" fill="none">
  <rect x="0.209677" y="0.209677" width="25.5806" height="25.5806" rx="12.7903" fill="white" fill-opacity="0.8"></rect>
  <rect x="0.209677" y="0.209677" width="25.5806" height="25.5806" rx="12.7903" stroke="#285100" stroke-width="0.419355"></rect>
  <path d="M13.6547 12.1911C13.9448 12.4812 13.9448 12.9516 13.6547 13.2418L9.93182 16.9647C9.64162 17.2548 9.64162 17.7252 9.93182 18.0154L10.3339 18.4175C10.624 18.7077 11.0944 18.7077 11.3846 18.4175L16.5603 13.2418C16.8505 12.9516 16.8505 12.4812 16.5603 12.1911L11.3846 7.01532C11.0944 6.72518 10.624 6.72518 10.3339 7.01532L9.93182 7.41747C9.64162 7.70761 9.64162 8.17802 9.93182 8.46816L13.6547 12.1911Z" fill="#285100" fill-opacity="0.55"></path>
</svg>
