<svg width="13" height="14" viewBox="0 0 13 14" fill="none" xmlns="http://www.w3.org/2000/svg">
<path d="M12.3317 6.87815C12.9037 4.91955 7.7323 6.41856 6.11649 7.4706C2.66929 13.5037 8.15694 11.665 8.64109 10.9908C9.12523 10.3165 8.59257 9.51778 8.98533 9.48432C9.37809 9.45086 10.7177 9.12575 10.7177 9.12575C11.6647 8.83407 12.0789 7.74369 12.3317 6.87815Z" fill="#C7D8A2"/>
<path d="M5.09754 0.896946C6.71666 -0.195887 6.65257 5.52583 6.11649 7.4706C1.5587 12.5855 1.84831 6.44899 2.33246 5.77475C2.8166 5.10051 3.67216 5.44957 3.60218 5.03351C3.5322 4.61745 3.48363 3.14455 3.48363 3.14455C3.50506 2.08768 4.38202 1.37989 5.09754 0.896946Z" fill="#C7D8A2"/>
</svg>
